<svg xmlns="http://www.w3.org/2000/svg" data-name="Layer 1" viewBox="1.37 1.37 97.27 97.27">
 <title>NOUN_Sign</title>

 <g>
  <title>Layer 1</title>
  <path id="svg_1" d="m82.8,95.91l-32.8,-32.79l-32.8,32.79a9.25,9.25 0 0 1 -13.11,0l0,0a9.25,9.25 0 0 1 0,-13.11l32.79,-32.8l-32.79,-32.8a9.25,9.25 0 0 1 0,-13.11l0,0a9.25,9.25 0 0 1 13.11,0l32.8,32.79l32.8,-32.79a9.25,9.25 0 0 1 13.11,0l0,0a9.25,9.25 0 0 1 0,13.11l-32.79,32.8l32.79,32.8a9.25,9.25 0 0 1 0,13.11l0,0a9.25,9.25 0 0 1 -13.11,0z"/>
 </g>
</svg>